# xmcd CD database file
#
# Track frame offsets:
#	151
#	46711
#	87124
#	122489
#
# Disc length: 2683 seconds
#
# Revision: 1
# Processed by: cddbd v1.5.2PL0 Copyright (c) Steve Scherf et al.
# Submitted via: CDex 1.51
#
DISCID=220a7904
DTITLE=John coltrane - The Complete 1963 Copenhagen Disc-2
DYEAR=1963
DGENRE=Jazz
TTITLE0=The Promise
TTITLE1=Afro Blue
TTITLE2=Naima
TTITLE3=My Favorite Things
EXTD=YEAR: 1963
EXTT0=
EXTT1=
EXTT2=
EXTT3=
PLAYORDER=
